<svg width="335.5" height="66.001" viewBox="0 0 335.5 66.001" xmlns="http://www.w3.org/2000/svg">
    <g id="svgGroup" stroke-linecap="round" fill-rule="evenodd" font-size="9pt" stroke="#ffffff" stroke-width="0.25mm"
       fill="#ffffff" style="stroke:#ffffff;stroke-width:0.25mm;fill:#ffffff">
        <path d="M 8.2 36.2 L 8.2 61 A 5.362 5.362 0 0 1 8.026 62.403 A 4.027 4.027 0 0 1 7.1 64.1 A 3.626 3.626 0 0 1 4.947 65.234 A 5.222 5.222 0 0 1 4.1 65.3 A 4.845 4.845 0 0 1 2.8 65.135 A 3.546 3.546 0 0 1 1.1 64.1 A 4.122 4.122 0 0 1 0.073 61.933 A 5.731 5.731 0 0 1 0 61 L 0 4.4 A 5.362 5.362 0 0 1 0.175 2.997 A 4.027 4.027 0 0 1 1.1 1.3 A 3.626 3.626 0 0 1 3.254 0.166 A 5.222 5.222 0 0 1 4.1 0.1 A 4.845 4.845 0 0 1 5.4 0.265 A 3.546 3.546 0 0 1 7.1 1.3 A 4.122 4.122 0 0 1 8.127 3.467 A 5.731 5.731 0 0 1 8.2 4.4 L 8.2 28.5 L 17.3 28.5 A 14.934 14.934 0 0 0 19.421 28.358 Q 21.305 28.088 22.65 27.3 A 9.809 9.809 0 0 0 25.857 24.248 A 11.534 11.534 0 0 0 26.05 23.95 A 23.842 23.842 0 0 0 26.918 22.436 Q 27.9 20.581 29 17.9 L 34.9 3.3 A 7.066 7.066 0 0 1 35.701 1.885 A 5.874 5.874 0 0 1 36.5 1 Q 37.5 0.1 38.9 0.1 Q 40.5 0.1 41.75 1.1 A 3.216 3.216 0 0 1 42.985 3.437 A 4.331 4.331 0 0 1 43 3.8 Q 43 4.7 42.6 5.5 L 36.7 20.3 A 51.038 51.038 0 0 1 35.575 22.913 Q 34.34 25.561 33.105 27.244 A 16.147 16.147 0 0 1 33.1 27.25 A 12.908 12.908 0 0 1 30.011 30.217 A 16.328 16.328 0 0 1 28.2 31.3 A 15.877 15.877 0 0 1 33.301 34.228 A 19.969 19.969 0 0 1 35.1 35.95 A 23.894 23.894 0 0 1 39.15 42.009 A 28.402 28.402 0 0 1 40 44 L 46.2 59.9 A 7.308 7.308 0 0 1 46.42 60.524 Q 46.513 60.836 46.558 61.113 A 3.034 3.034 0 0 1 46.6 61.6 A 3.458 3.458 0 0 1 45.538 64.114 A 4.579 4.579 0 0 1 45.45 64.2 Q 44.3 65.3 42.6 65.3 Q 41.3 65.3 40.2 64.55 A 4.548 4.548 0 0 1 38.854 63.098 A 5.87 5.87 0 0 1 38.5 62.4 L 32.1 46.4 Q 30.593 42.701 28.64 40.409 A 12.246 12.246 0 0 0 26.75 38.6 A 10.076 10.076 0 0 0 23.809 37.091 Q 21.139 36.2 17.3 36.2 L 8.2 36.2 Z M 225.5 27.7 A 5.668 5.668 0 0 0 226.007 30.133 Q 226.703 31.617 228.35 32.6 A 20.496 20.496 0 0 0 230.32 33.618 Q 232.981 34.835 237.2 36.1 A 117.629 117.629 0 0 1 240.365 37.143 Q 241.987 37.705 243.356 38.243 A 47.131 47.131 0 0 1 245.85 39.3 Q 249.1 40.8 251.45 43.65 Q 253.8 46.5 253.8 51 A 13.943 13.943 0 0 1 252.619 56.807 Q 251.342 59.633 248.685 61.782 A 16.814 16.814 0 0 1 248.6 61.85 Q 243.677 65.779 235.796 65.988 A 33.76 33.76 0 0 1 234.9 66 Q 228.87 66 224.432 64.107 A 19.347 19.347 0 0 1 223.75 63.8 A 26.22 26.22 0 0 1 220.192 61.784 Q 218.003 60.292 216.5 58.5 A 8.768 8.768 0 0 1 215.823 57.568 Q 215.1 56.406 215.1 55.4 A 3.834 3.834 0 0 1 215.424 53.81 A 3.724 3.724 0 0 1 216.2 52.7 A 3.664 3.664 0 0 1 218.85 51.6 A 4.623 4.623 0 0 1 218.9 51.6 A 4.185 4.185 0 0 1 220.525 51.907 A 3.916 3.916 0 0 1 222 53 Q 226.8 59 235.2 59 A 19.989 19.989 0 0 0 238.316 58.772 Q 239.964 58.512 241.306 57.954 A 9.704 9.704 0 0 0 243 57.05 A 6.886 6.886 0 0 0 244.823 55.306 Q 245.9 53.772 245.9 51.7 A 6.202 6.202 0 0 0 245.365 49.086 Q 244.644 47.513 242.95 46.45 A 20.852 20.852 0 0 0 240.86 45.318 Q 238.535 44.209 235.097 43.082 A 85.42 85.42 0 0 0 233.9 42.7 Q 228.7 41 225.5 39.5 Q 222.3 38 220.05 35.3 A 9.446 9.446 0 0 1 218.091 31.184 A 13.585 13.585 0 0 1 217.8 28.3 Q 217.8 22 222.65 18.3 A 17.771 17.771 0 0 1 230.43 14.962 A 24.242 24.242 0 0 1 234.7 14.6 Q 239.6 14.6 244 16.3 A 22.995 22.995 0 0 1 247.262 17.846 Q 249.416 19.097 250.9 20.7 A 4.708 4.708 0 0 1 251.608 21.589 A 3.259 3.259 0 0 1 252.1 23.3 Q 252.1 24.9 251.05 26 A 3.497 3.497 0 0 1 249.727 26.89 A 3.512 3.512 0 0 1 248.5 27.1 Q 247.1 27.1 246 26.2 Q 241.1 21.6 234.6 21.6 A 18.755 18.755 0 0 0 232.098 21.756 Q 230.824 21.928 229.775 22.289 A 8.125 8.125 0 0 0 227.9 23.2 Q 225.5 24.8 225.5 27.7 Z M 123.2 15.3 L 123.2 4.3 A 5.362 5.362 0 0 1 123.375 2.897 A 4.027 4.027 0 0 1 124.3 1.2 A 3.646 3.646 0 0 1 126.761 0.019 A 5.031 5.031 0 0 1 127.2 0 A 4.845 4.845 0 0 1 128.5 0.165 A 3.546 3.546 0 0 1 130.2 1.2 A 4.122 4.122 0 0 1 131.227 3.367 A 5.731 5.731 0 0 1 131.3 4.3 L 131.3 15.3 L 142.5 15.3 A 5.307 5.307 0 0 1 143.831 15.459 A 3.927 3.927 0 0 1 145.45 16.3 A 3.286 3.286 0 0 1 146.577 18.536 A 4.621 4.621 0 0 1 146.6 19 A 4.512 4.512 0 0 1 146.453 20.185 A 3.202 3.202 0 0 1 145.45 21.8 A 4.006 4.006 0 0 1 143.487 22.717 A 5.585 5.585 0 0 1 142.5 22.8 L 131.3 22.8 L 131.3 47.3 A 17.553 17.553 0 0 0 131.688 51.171 Q 132.913 56.566 138.006 57.434 A 12.477 12.477 0 0 0 140.1 57.6 L 142.8 57.6 A 5.016 5.016 0 0 1 144.076 57.754 A 3.652 3.652 0 0 1 145.7 58.65 A 3.477 3.477 0 0 1 146.723 60.597 A 5.028 5.028 0 0 1 146.8 61.5 Q 146.8 63.3 145.7 64.3 A 3.751 3.751 0 0 1 143.906 65.193 A 5.403 5.403 0 0 1 142.8 65.3 L 140.1 65.3 Q 132.3 65.3 127.75 60.95 Q 123.2 56.6 123.2 47.3 L 123.2 22.8 L 118 22.8 A 5.351 5.351 0 0 1 116.588 22.622 A 4.158 4.158 0 0 1 115 21.8 A 3.26 3.26 0 0 1 113.85 19.698 A 4.741 4.741 0 0 1 113.8 19 A 3.88 3.88 0 0 1 113.991 17.757 A 3.195 3.195 0 0 1 115 16.3 Q 116.2 15.3 118 15.3 L 123.2 15.3 Z M 269.4 15.3 L 269.4 4.3 A 5.362 5.362 0 0 1 269.575 2.897 A 4.027 4.027 0 0 1 270.5 1.2 A 3.646 3.646 0 0 1 272.961 0.019 A 5.031 5.031 0 0 1 273.4 0 A 4.845 4.845 0 0 1 274.7 0.165 A 3.546 3.546 0 0 1 276.4 1.2 A 4.122 4.122 0 0 1 277.427 3.367 A 5.731 5.731 0 0 1 277.5 4.3 L 277.5 15.3 L 288.7 15.3 A 5.307 5.307 0 0 1 290.031 15.459 A 3.927 3.927 0 0 1 291.65 16.3 A 3.286 3.286 0 0 1 292.777 18.536 A 4.621 4.621 0 0 1 292.8 19 A 4.512 4.512 0 0 1 292.653 20.185 A 3.202 3.202 0 0 1 291.65 21.8 A 4.006 4.006 0 0 1 289.687 22.717 A 5.585 5.585 0 0 1 288.7 22.8 L 277.5 22.8 L 277.5 47.3 A 17.553 17.553 0 0 0 277.888 51.171 Q 279.113 56.566 284.206 57.434 A 12.477 12.477 0 0 0 286.3 57.6 L 289 57.6 A 5.016 5.016 0 0 1 290.276 57.754 A 3.652 3.652 0 0 1 291.9 58.65 A 3.477 3.477 0 0 1 292.923 60.597 A 5.028 5.028 0 0 1 293 61.5 Q 293 63.3 291.9 64.3 A 3.751 3.751 0 0 1 290.106 65.193 A 5.403 5.403 0 0 1 289 65.3 L 286.3 65.3 Q 278.5 65.3 273.95 60.95 Q 269.4 56.6 269.4 47.3 L 269.4 22.8 L 264.2 22.8 A 5.351 5.351 0 0 1 262.788 22.622 A 4.158 4.158 0 0 1 261.2 21.8 A 3.26 3.26 0 0 1 260.05 19.698 A 4.741 4.741 0 0 1 260 19 A 3.88 3.88 0 0 1 260.191 17.757 A 3.195 3.195 0 0 1 261.2 16.3 Q 262.4 15.3 264.2 15.3 L 269.4 15.3 Z M 105 36.6 L 105 61.1 A 4.845 4.845 0 0 1 104.778 62.596 A 4.038 4.038 0 0 1 103.9 64.1 A 3.646 3.646 0 0 1 101.439 65.281 A 5.031 5.031 0 0 1 101 65.3 A 4.571 4.571 0 0 1 99.677 65.118 A 3.573 3.573 0 0 1 98.1 64.15 A 3.921 3.921 0 0 1 97.039 61.852 A 5.344 5.344 0 0 1 97 61.2 L 97 57.7 L 96.4 57.7 A 16.364 16.364 0 0 1 93.69 60.827 Q 92.351 62.042 90.645 63.139 A 28.41 28.41 0 0 1 90.15 63.45 Q 86.611 65.625 81.29 65.945 A 31.482 31.482 0 0 1 79.4 66 A 25.9 25.9 0 0 1 71.197 64.731 A 23.431 23.431 0 0 1 66.8 62.75 Q 61.2 59.5 58.05 53.75 A 25.708 25.708 0 0 1 55.051 43.82 A 31.658 31.658 0 0 1 54.9 40.7 A 28.975 28.975 0 0 1 56.138 32.118 A 25.747 25.747 0 0 1 58.15 27.35 Q 61.4 21.4 67.25 18 A 25.228 25.228 0 0 1 77.79 14.725 A 31.146 31.146 0 0 1 80.6 14.6 A 31.012 31.012 0 0 1 87.936 15.439 A 26.152 26.152 0 0 1 93.05 17.25 Q 98.6 19.9 101.8 24.85 A 19.853 19.853 0 0 1 104.745 32.909 A 25.907 25.907 0 0 1 105 36.6 Z M 204.3 36.6 L 204.3 61.1 A 4.845 4.845 0 0 1 204.078 62.596 A 4.038 4.038 0 0 1 203.2 64.1 A 3.646 3.646 0 0 1 200.739 65.281 A 5.031 5.031 0 0 1 200.3 65.3 A 4.571 4.571 0 0 1 198.977 65.118 A 3.573 3.573 0 0 1 197.4 64.15 A 3.921 3.921 0 0 1 196.339 61.852 A 5.344 5.344 0 0 1 196.3 61.2 L 196.3 57.7 L 195.7 57.7 A 16.364 16.364 0 0 1 192.99 60.827 Q 191.651 62.042 189.945 63.139 A 28.41 28.41 0 0 1 189.45 63.45 Q 185.911 65.625 180.59 65.945 A 31.482 31.482 0 0 1 178.7 66 A 25.9 25.9 0 0 1 170.497 64.731 A 23.431 23.431 0 0 1 166.1 62.75 Q 160.5 59.5 157.35 53.75 A 25.708 25.708 0 0 1 154.351 43.82 A 31.658 31.658 0 0 1 154.2 40.7 A 28.975 28.975 0 0 1 155.438 32.118 A 25.747 25.747 0 0 1 157.45 27.35 Q 160.7 21.4 166.55 18 A 25.228 25.228 0 0 1 177.09 14.725 A 31.146 31.146 0 0 1 179.9 14.6 A 31.012 31.012 0 0 1 187.236 15.439 A 26.152 26.152 0 0 1 192.35 17.25 Q 197.9 19.9 201.1 24.85 A 19.853 19.853 0 0 1 204.045 32.909 A 25.907 25.907 0 0 1 204.3 36.6 Z M 331.7 23.5 L 330.5 23.3 A 16.192 16.192 0 0 0 328.545 22.609 Q 327.515 22.321 326.576 22.236 A 8.578 8.578 0 0 0 325.8 22.2 A 13.487 13.487 0 0 0 321.33 22.91 A 11.356 11.356 0 0 0 316.25 26.5 A 14.961 14.961 0 0 0 313.264 32.651 Q 312.735 34.864 312.702 37.453 A 27.215 27.215 0 0 0 312.7 37.8 L 312.7 61.1 A 4.633 4.633 0 0 1 312.456 62.632 A 4.004 4.004 0 0 1 311.55 64.1 A 3.845 3.845 0 0 1 308.891 65.292 A 5.17 5.17 0 0 1 308.6 65.3 A 4.379 4.379 0 0 1 307.253 65.102 A 3.552 3.552 0 0 1 305.7 64.1 A 4.152 4.152 0 0 1 304.622 61.595 A 5.504 5.504 0 0 1 304.6 61.1 L 304.6 19.5 A 4.845 4.845 0 0 1 304.822 18.004 A 4.038 4.038 0 0 1 305.7 16.5 A 3.646 3.646 0 0 1 308.161 15.319 A 5.031 5.031 0 0 1 308.6 15.3 A 4.405 4.405 0 0 1 310.051 15.53 A 3.758 3.758 0 0 1 311.55 16.5 A 4.099 4.099 0 0 1 312.692 19.195 A 5.403 5.403 0 0 1 312.7 19.5 L 312.7 23 L 313.1 23 Q 314.178 20.429 317.011 18.167 A 21.742 21.742 0 0 1 318.25 17.25 Q 322.1 14.6 326.6 14.6 Q 329.121 14.6 332.077 15.733 A 22.843 22.843 0 0 1 332.5 15.9 A 5.711 5.711 0 0 1 333.882 16.558 Q 335.5 17.644 335.5 19.7 A 3.834 3.834 0 0 1 335.176 21.29 A 3.724 3.724 0 0 1 334.4 22.4 A 3.664 3.664 0 0 1 331.75 23.5 A 4.623 4.623 0 0 1 331.7 23.5 Z M 97 42.8 L 97 37 A 19.311 19.311 0 0 0 96.526 32.586 Q 95.757 29.309 93.739 27.025 A 11.876 11.876 0 0 0 92.6 25.9 A 15.001 15.001 0 0 0 86.342 22.733 Q 84.136 22.179 81.548 22.11 A 27.944 27.944 0 0 0 80.8 22.1 A 23.732 23.732 0 0 0 75.587 22.639 Q 71.934 23.461 69.286 25.54 A 14.219 14.219 0 0 0 67.6 27.1 A 17.007 17.007 0 0 0 63.472 35.375 A 24.464 24.464 0 0 0 63 40.3 A 26.579 26.579 0 0 0 63.52 45.719 Q 64.234 49.144 65.926 51.769 A 15.276 15.276 0 0 0 67.4 53.7 A 14.293 14.293 0 0 0 75.091 58.097 A 21.715 21.715 0 0 0 79.9 58.6 A 23.17 23.17 0 0 0 85.126 58.044 Q 89.107 57.123 91.93 54.676 A 14.677 14.677 0 0 0 92.4 54.25 A 14.496 14.496 0 0 0 96.887 44.958 A 20.074 20.074 0 0 0 97 42.8 Z M 196.3 42.8 L 196.3 37 A 19.311 19.311 0 0 0 195.826 32.586 Q 195.057 29.309 193.039 27.025 A 11.876 11.876 0 0 0 191.9 25.9 A 15.001 15.001 0 0 0 185.642 22.733 Q 183.436 22.179 180.848 22.11 A 27.944 27.944 0 0 0 180.1 22.1 A 23.732 23.732 0 0 0 174.887 22.639 Q 171.234 23.461 168.586 25.54 A 14.219 14.219 0 0 0 166.9 27.1 A 17.007 17.007 0 0 0 162.772 35.375 A 24.464 24.464 0 0 0 162.3 40.3 A 26.579 26.579 0 0 0 162.82 45.719 Q 163.534 49.144 165.226 51.769 A 15.276 15.276 0 0 0 166.7 53.7 A 14.293 14.293 0 0 0 174.391 58.097 A 21.715 21.715 0 0 0 179.2 58.6 A 23.17 23.17 0 0 0 184.426 58.044 Q 188.407 57.123 191.23 54.676 A 14.677 14.677 0 0 0 191.7 54.25 A 14.496 14.496 0 0 0 196.187 44.958 A 20.074 20.074 0 0 0 196.3 42.8 Z"
              vector-effect="non-scaling-stroke"/>
    </g>
</svg>